<svg width="371" height="90" viewBox="0 0 371 90" fill="none" xmlns="http://www.w3.org/2000/svg">
<path d="M121.223 52.25L144.083 77H130.223L111.863 55.67V77H101.603V10.4H111.863V49.1L129.863 27.41H144.083L121.223 52.25ZM161.697 10.4V77H151.437V10.4H161.697ZM171.747 51.98C171.747 47 172.767 42.59 174.807 38.75C176.907 34.91 179.727 31.94 183.267 29.84C186.867 27.68 190.827 26.6 195.147 26.6C199.047 26.6 202.437 27.38 205.317 28.94C208.257 30.44 210.597 32.33 212.337 34.61V27.41H222.687V77H212.337V69.62C210.597 71.96 208.227 73.91 205.227 75.47C202.227 77.03 198.807 77.81 194.967 77.81C190.707 77.81 186.807 76.73 183.267 74.57C179.727 72.35 176.907 69.29 174.807 65.39C172.767 61.43 171.747 56.96 171.747 51.98ZM212.337 52.16C212.337 48.74 211.617 45.77 210.177 43.25C208.797 40.73 206.967 38.81 204.687 37.49C202.407 36.17 199.947 35.51 197.307 35.51C194.667 35.51 192.207 36.17 189.927 37.49C187.647 38.75 185.787 40.64 184.347 43.16C182.967 45.62 182.277 48.56 182.277 51.98C182.277 55.4 182.967 58.4 184.347 60.98C185.787 63.56 187.647 65.54 189.927 66.92C192.267 68.24 194.727 68.9 197.307 68.9C199.947 68.9 202.407 68.24 204.687 66.92C206.967 65.6 208.797 63.68 210.177 61.16C211.617 58.58 212.337 55.58 212.337 52.16ZM257.404 51.89L273.424 77H261.814L251.104 60.17L241.024 77H230.314L246.334 52.61L230.314 27.41H241.924L252.634 44.24L262.714 27.41H273.424L257.404 51.89Z" fill="white"/>
<path d="M367.053 50.99C367.053 52.85 366.933 54.53 366.693 56.03H328.803C329.103 59.99 330.573 63.17 333.213 65.57C335.853 67.97 339.093 69.17 342.933 69.17C348.453 69.17 352.353 66.86 354.633 62.24H365.703C364.203 66.8 361.473 70.55 357.513 73.49C353.613 76.37 348.753 77.81 342.933 77.81C338.193 77.81 333.933 76.76 330.153 74.66C326.433 72.5 323.493 69.5 321.333 65.66C319.233 61.76 318.183 57.26 318.183 52.16C318.183 47.06 319.203 42.59 321.243 38.75C323.343 34.85 326.253 31.85 329.973 29.75C333.753 27.65 338.073 26.6 342.933 26.6C347.613 26.6 351.783 27.62 355.443 29.66C359.103 31.7 361.953 34.58 363.993 38.3C366.033 41.96 367.053 46.19 367.053 50.99ZM356.343 47.75C356.283 43.97 354.933 40.94 352.293 38.66C349.653 36.38 346.383 35.24 342.483 35.24C338.943 35.24 335.913 36.38 333.393 38.66C330.873 40.88 329.373 43.91 328.893 47.75H356.343Z" fill="white"/>
<path d="M42.4264 80.9401C39.1001 62.691 24.7354 48.3263 6.4863 45C24.7354 41.6737 39.1001 27.309 42.4264 9.0599C45.7527 27.309 60.1174 41.6737 78.3665 45C60.1174 48.3263 45.7527 62.691 42.4264 80.9401Z" fill="white" stroke="white" stroke-width="1.4"/>
<path d="M287.753 52.1005C290.065 47.6618 290.065 42.3382 287.753 37.8995C292.191 40.2115 297.515 40.2115 301.954 37.8995C299.642 42.3382 299.642 47.6618 301.954 52.1005C297.515 49.7885 292.191 49.7885 287.753 52.1005Z" fill="white" stroke="white" stroke-width="1.4"/>
</svg>
